<?xml version="1.0" standalone="no"?>
<!DOCTYPE svg PUBLIC "-//W3C//DTD SVG 20010904//EN"
 "http://www.w3.org/TR/2001/REC-SVG-20010904/DTD/svg10.dtd">
<svg version="1.0" xmlns="http://www.w3.org/2000/svg"
 width="666.000000pt" height="318.000000pt" viewBox="0 0 666.000000 318.000000"
 preserveAspectRatio="xMidYMid meet">

<g transform="translate(0.000000,318.000000) scale(0.100000,-0.100000)"
fill="#000000" stroke="none">
<path d="M970 2885 l0 -295 555 0 555 0 0 -220 c0 -208 4 -244 30 -270 18 -18
52 -110 41 -110 -5 0 -12 13 -16 28 -3 15 -17 46 -30 67 l-24 40 0 -295 c0
-267 1 -292 15 -267 8 15 20 27 27 26 9 0 9 -2 -1 -6 -6 -2 -12 -10 -12 -18 0
-7 -7 -18 -15 -25 -8 -7 -15 -29 -15 -50 0 -34 -4 -41 -45 -64 -97 -58 -159
-214 -104 -265 28 -26 60 -30 106 -15 21 8 39 14 41 14 1 0 2 -36 2 -80 0
-123 -41 -190 -116 -190 -53 0 -72 20 -44 45 27 24 25 35 -4 35 -33 0 -66 -44
-66 -86 l0 -34 -440 0 -440 0 0 -365 0 -365 555 0 c363 0 555 -3 555 -10 0 -7
163 -10 470 -10 l470 0 0 -45 0 -45 115 0 115 0 0 30 0 30 110 0 c90 0 110 -3
110 -15 0 -11 -21 -15 -107 -18 l-108 -3 108 -2 c87 -2 107 -5 107 -17 0 -13
153 -15 1314 -15 l1313 0 7 37 c3 21 6 55 6 76 0 26 4 37 15 37 12 0 15 -14
15 -70 l0 -70 220 0 220 0 0 1585 0 1585 -2805 0 -2805 0 0 -295z m1202 -950
c2 -19 0 -35 -4 -35 -4 0 -8 11 -8 24 0 13 -3 32 -7 42 -4 11 -3 15 4 11 6 -4
13 -23 15 -42z m7 -122 c-2 -76 -28 -186 -49 -207 -14 -14 -13 -9 11 54 12 32
23 90 26 142 3 48 8 88 10 88 2 0 3 -35 2 -77z m2081 -261 c0 -133 4 -192 12
-200 9 -9 68 -12 205 -12 l193 0 0 -135 0 -135 -345 0 -345 0 0 335 0 335 140
0 140 0 0 -188z m410 3 l0 -185 -190 0 -190 0 0 185 0 185 190 0 190 0 0 -185z
m510 -3 c0 -133 4 -192 12 -200 9 -9 68 -12 205 -12 l193 0 0 -135 0 -135
-345 0 -345 0 0 335 0 335 140 0 140 0 0 -188z m410 3 l0 -185 -190 0 -190 0
0 185 0 185 190 0 190 0 0 -185z m-3526 -332 c-10 -7 -31 -13 -46 -13 -64 0
-54 97 16 165 l41 40 3 -90 c2 -76 0 -92 -14 -102z m16 -353 c0 -15 -7 -20
-26 -20 l-26 0 23 20 c30 24 29 24 29 0z m-530 -310 c0 -33 4 -60 8 -60 4 0
34 27 67 60 42 43 67 60 85 60 22 -1 18 -7 -42 -63 l-68 -62 70 -80 c69 -79
70 -80 43 -83 -29 -4 -30 -3 -120 103 l-42 50 -1 -77 c0 -76 -1 -78 -25 -78
l-25 0 0 145 0 145 25 0 c24 0 25 -3 25 -60z m310 -44 c22 -55 43 -103 49
-109 5 -5 25 32 52 102 33 84 47 111 61 111 10 0 18 -2 18 -4 0 -2 -36 -84
-81 -183 -45 -98 -88 -195 -96 -215 -15 -37 -38 -55 -48 -37 -4 5 10 39 29 75
20 35 36 72 36 80 0 8 -25 73 -55 144 -30 71 -55 132 -55 135 0 4 12 5 26 3
22 -3 30 -16 64 -102z m284 77 c8 -16 25 -43 39 -60 l24 -33 42 60 c29 40 49
60 63 60 23 0 28 8 -59 -98 l-32 -39 54 -71 c30 -38 55 -73 55 -76 0 -3 -13
-6 -29 -6 -23 0 -35 10 -65 55 -20 30 -40 55 -45 55 -5 0 -26 -25 -46 -55 -23
-33 -46 -55 -57 -55 -10 0 -18 2 -18 4 0 3 23 32 50 65 28 33 50 64 50 69 0 4
-19 35 -43 67 -63 88 -62 85 -28 85 23 0 34 -7 45 -27z m298 -30 l3 -58 73 -3
72 -3 0 61 c0 58 1 61 23 58 21 -3 22 -6 25 -145 l3 -143 -26 0 c-25 0 -25 1
-25 75 l0 75 -75 0 -75 0 0 -75 c0 -68 -2 -75 -20 -75 -19 0 -20 7 -20 145 0
137 1 145 20 145 16 0 19 -8 22 -57z m328 -43 c0 -55 4 -100 8 -100 4 0 44 45
87 100 43 55 85 100 92 100 10 0 13 -33 13 -145 l0 -145 -25 0 -25 0 0 103 -1
102 -44 -50 c-25 -27 -62 -74 -82 -102 -21 -29 -44 -53 -50 -53 -10 0 -13 36
-13 145 0 138 1 145 20 145 19 0 20 -7 20 -100z m502 43 l3 -58 73 -3 72 -3 0
61 c0 58 1 61 23 58 21 -3 22 -6 25 -145 l3 -143 -26 0 c-25 0 -25 1 -25 75
l0 75 -75 0 -75 0 0 -75 c0 -68 -2 -75 -20 -75 -19 0 -20 7 -20 145 0 137 1
145 20 145 16 0 19 -8 22 -57z m459 28 c28 -29 29 -32 29 -135 0 -88 3 -106
15 -106 8 0 15 -4 15 -10 0 -16 -56 -12 -70 5 -11 13 -15 13 -41 0 -68 -36
-139 -5 -139 60 0 47 28 70 101 84 64 13 75 25 65 66 -13 50 -84 58 -126 13
-20 -22 -20 -22 -20 -1 0 26 51 52 103 53 29 0 46 -7 68 -29z m443 8 c32 -25
35 -71 6 -92 -19 -13 -19 -14 10 -36 71 -52 13 -141 -92 -141 -62 0 -88 9 -88
31 0 23 0 23 36 4 38 -20 67 -19 94 3 26 21 30 66 7 89 -9 9 -33 19 -54 23
-38 7 -34 13 19 24 36 8 48 49 23 76 -23 25 -60 25 -84 1 -21 -21 -31 -18 -31
10 0 22 13 27 76 28 38 1 58 -5 78 -20z m297 -8 c28 -29 29 -32 29 -135 0 -88
3 -106 15 -106 8 0 15 -4 15 -10 0 -16 -56 -12 -70 5 -11 13 -15 13 -41 0 -68
-36 -139 -5 -139 60 0 47 28 70 101 84 64 13 75 25 65 66 -13 50 -84 58 -126
13 -20 -22 -20 -22 -20 -1 0 26 51 52 103 53 29 0 46 -7 68 -29z m179 -31 c0
-33 4 -60 8 -60 4 0 34 27 67 60 42 43 67 60 85 60 22 -1 18 -7 -42 -63 l-68
-62 70 -80 c69 -79 70 -80 43 -83 -29 -4 -30 -3 -120 103 l-42 50 -1 -77 c0
-76 -1 -78 -25 -78 l-25 0 0 145 0 145 25 0 c24 0 25 -3 25 -60z m421 31 c28
-29 29 -32 29 -135 0 -88 3 -106 15 -106 8 0 15 -4 15 -10 0 -16 -56 -12 -70
5 -11 13 -15 13 -41 0 -68 -36 -139 -5 -139 60 0 47 28 70 101 84 64 13 75 25
65 66 -13 50 -84 58 -126 13 -20 -22 -20 -22 -20 -1 0 26 51 52 103 53 29 0
46 -7 68 -29z m273 8 c32 -25 35 -71 6 -92 -19 -13 -19 -14 10 -36 71 -52 13
-141 -92 -141 -62 0 -88 9 -88 31 0 23 0 23 36 4 38 -20 67 -19 94 3 26 21 30
66 7 89 -9 9 -33 19 -54 23 -38 7 -34 13 19 24 36 8 48 49 23 76 -23 25 -60
25 -84 1 -21 -21 -31 -18 -31 10 0 22 13 27 76 28 38 1 58 -5 78 -20z"/>
<path d="M3645 463 c-57 -14 -76 -84 -30 -105 21 -9 32 -8 60 5 32 15 35 20
35 62 0 48 -7 52 -65 38z"/>
<path d="M4385 463 c-57 -14 -76 -84 -30 -105 21 -9 32 -8 60 5 32 15 35 20
35 62 0 48 -7 52 -65 38z"/>
<path d="M4985 463 c-57 -14 -76 -84 -30 -105 21 -9 32 -8 60 5 32 15 35 20
35 62 0 48 -7 52 -65 38z"/>
<path d="M1122 1825 c-49 -44 -89 -119 -142 -270 -89 -251 -131 -299 -285
-326 -80 -14 -271 -7 -304 10 -12 7 -21 18 -18 24 9 31 115 77 292 127 179 51
243 79 253 109 15 47 -448 -101 -543 -173 -60 -46 -60 -110 -1 -139 57 -26
162 -40 264 -34 117 7 180 35 250 111 42 46 56 75 102 198 52 139 112 273 131
293 14 14 11 -17 -12 -172 -25 -164 -29 -313 -11 -365 32 -91 76 -32 221 297
63 144 110 231 111 205 0 -8 -11 -71 -25 -140 -40 -204 -32 -320 31 -447 32
-66 50 -84 66 -67 4 3 -5 29 -18 58 -51 111 -51 214 1 478 26 135 32 228 15
228 -25 0 -71 -32 -103 -72 -42 -52 -74 -114 -163 -323 -67 -155 -69 -159 -72
-117 -2 24 6 121 17 217 28 233 27 325 -5 325 -8 0 -31 -16 -52 -35z"/>
<path d="M1655 1433 c-85 -44 -138 -143 -119 -220 8 -32 15 -40 49 -51 134
-46 242 22 261 165 7 54 -11 105 -41 117 -31 11 -120 5 -150 -11z m118 -66
c22 -44 16 -103 -15 -142 -16 -20 -28 -25 -64 -25 -25 0 -54 5 -65 11 -50 26
-41 106 17 165 30 29 42 35 72 32 32 -3 40 -9 55 -41z"/>
<path d="M150 485 l0 -365 375 0 375 0 0 150 c0 93 4 150 10 150 6 0 10 18 10
40 0 22 -4 40 -10 40 -6 0 -10 50 -10 129 0 115 2 130 18 134 16 4 16 5 0 6
-14 1 -18 10 -18 41 l0 40 -375 0 -375 0 0 -365z m435 235 c22 -11 43 -27 48
-35 6 -11 13 -13 27 -5 10 5 36 10 58 10 44 0 92 -38 92 -72 0 -40 -32 -89
-72 -109 -23 -12 -43 -31 -48 -47 -21 -58 -16 -56 -159 -53 -106 2 -136 0
-155 -13 -22 -14 -24 -14 -30 7 -3 12 -6 32 -6 45 0 29 -34 62 -65 62 -33 0
-59 50 -51 96 13 64 98 105 155 74 14 -7 23 -4 37 12 23 25 70 47 104 48 14 0
43 -9 65 -20z m-115 -370 c12 -8 10 -10 -10 -10 -14 0 -36 -3 -50 -6 -24 -5
-24 -5 -6 10 23 18 44 20 66 6z m153 -2 c15 -11 11 -13 -25 -11 -56 2 -55 2
-38 13 21 13 43 12 63 -2z m28 -80 c61 -34 95 -33 86 2 -6 23 11 27 19 5 9
-23 -15 -45 -47 -45 -15 0 -51 9 -79 20 -65 26 -160 26 -215 1 -68 -31 -91
-33 -116 -12 -22 18 -23 21 -8 36 14 15 16 14 15 -7 -1 -34 30 -33 88 1 44 26
60 30 125 29 66 0 84 -4 132 -30z"/>
<path d="M22 740 c0 -19 2 -27 5 -17 2 9 2 25 0 35 -3 9 -5 1 -5 -18z"/>
<path d="M40 740 c0 -16 5 -30 10 -30 6 0 10 14 10 30 0 17 -4 30 -10 30 -5 0
-10 -13 -10 -30z"/>
<path d="M90 749 c0 -11 5 -17 10 -14 6 3 10 13 10 21 0 8 -4 14 -10 14 -5 0
-10 -9 -10 -21z"/>
<path d="M942 740 c0 -19 2 -27 5 -17 2 9 2 25 0 35 -3 9 -5 1 -5 -18z"/>
</g>
</svg>
